# xmcd CD database file
#
# Track frame offsets:
#	150
#	12201
#	26150
#	40424
#	53981
#	65460
#	77759
#	91423
#	106408
#	119866
#	133772
#	147771
#	161868
#	175282
#	188226
#	202312
#	216411
#	229464
#	242140
#	254814
#	267242
#	279592
#	293320
#	308023
#	322427
#
# Disc length: 4484 seconds
#
# Revision: 0
# Processed by: cddbd v1.5.2PL0 Copyright (c) Steve Scherf et al.
# Submitted via: CDex 1.51
#
DISCID=94118219
DTITLE=Mary Lou Williams With Andy Kirk And His Clouds Of Joy - Mary Lou Williams With Andy Kirk And His Clouds Of Joy-The Lady Who Swings The Band
DYEAR=2008
DGENRE=Jazz
TTITLE0=Walkin' And Swingin'
TTITLE1=Moten Swing
TTITLE2=Froggy Bottom
TTITLE3=Bearcat Shuffle
TTITLE4=Puddin' Head Serenade
TTITLE5=The Lady Who Swings The Band
TTITLE6=Keep It In The Groove
TTITLE7=A Mellow Bit Of Rhythm
TTITLE8=Bear Down
TTITLE9=Twinklin'
TTITLE10=Mess-a-Stomp
TTITLE11=What's Your Story, Morning Glory?
TTITLE12=Mary's Idea
TTITLE13=Close To Five
TTITLE14=Scratchin' In The Gravel
TTITLE15=The Count
TTITLE16=Twelfth Street Rag
TTITLE17=Baby Bear
TTITLE18=Harmony Blues
TTITLE19=Ring Dem Bells
TTITLE20=Christopher Columbus
TTITLE21=Skies Are Blue
TTITLE22=I Won't Tell A Soul (I Love You)
TTITLE23=Floyd's Guitar Blues
TTITLE24=Wham Re Bop Boom Bam
EXTD=YEAR: 2008
EXTT0=
EXTT1=
EXTT2=
EXTT3=
EXTT4=
EXTT5=
EXTT6=
EXTT7=
EXTT8=
EXTT9=
EXTT10=
EXTT11=
EXTT12=
EXTT13=
EXTT14=
EXTT15=
EXTT16=
EXTT17=
EXTT18=
EXTT19=
EXTT20=
EXTT21=
EXTT22=
EXTT23=
EXTT24=
PLAYORDER=
